:SAMPLES-PER-SECOND 30
:FULLY-SPECIFIED
:DEGREES
499
root  -39.2794 33.4566 5.47157 -131.016 -86.812 139.302
RightUpLeg  -17.4477 -17.2602 -15.2266
RightLeg  35.3859 0.925409 0.554815
RightFoot  2.87421 0.00953552 0.142549
RightToes  -48.7274 -0.29168 -0.358933
Spine  -4.8357 3.53486 -1.69223
Spine1  -9.6024 6.70103 -2.83231
HEad  -97.8943 -28.196 33.1539
LeftShoulder1  -1.94126e-019 -3.10601e-018 -2.51263e-017
LeftArm  -31.4385 23.1941 -60.1463
LeftForeArm  20.7333 -14.5189 -2.60719
LeftHand  -0.308838 -0.0292986 6.67444
RightShoulder  -4.96962e-017 0 -2.36833e-017
RightArm  -34.6239 43.1665 30.3487
RightForeArm  47.3432 51.3063 10.418
RightHand  -0.33449 -1.69307 -10.3458
LeftUpLeg  -5.67691 -6.32836 5.57067
LeftLeg  20.7664 6.13105 1.87708
LeftFoot  -6.15937 -0.0376436 -0.538132
LeftToes  -37.1057 1.70063e-006 7.6642e-008
500
root  -39.132 33.5477 5.72136 -146.816 -86.1876 155.906
RightUpLeg  -21.3855 -22.5063 -13.9249
RightLeg  38.7874 0.797848 0.538637
RightFoot  6.74157 0.0209233 0.174981
RightToes  -50.7823 -0.309823 -0.367591
Spine  -4.62243 3.36634 -1.42761
Spine1  -9.15975 6.4007 -2.23805
HEad  -103.826 -30.8442 39.1233
LeftShoulder1  -1.94126e-019 -3.10601e-018 -2.51263e-017
LeftArm  -41.8045 21.7471 -69.7024
LeftForeArm  22.2301 -12.042 -2.14126
LeftHand  -0.34662 -0.481512 6.95133
RightShoulder  -4.96962e-017 0 -2.36833e-017
RightArm  -24.813 40.7428 36.7267
RightForeArm  47.4412 35.1069 5.22265
RightHand  -0.294094 -0.835868 -7.44643
LeftUpLeg  -5.2427 -7.72454 5.37303
LeftLeg  18.5584 8.51856 2.25074
LeftFoot  -5.79611 -0.0454519 -0.736288
LeftToes  -36.461 1.70063e-006 7.6642e-008
501
root  -39.0621 33.5669 5.83548 -155.244 -84.1491 164.47
RightUpLeg  -26.0103 -28.3081 -12.049
RightLeg  43.1182 -0.22252 -0.213567
RightFoot  8.6913 0.039688 0.0157033
RightToes  -45.2123 -0.261402 -0.342633
Spine  -4.12841 3.60628 -1.52905
Spine1  -8.19154 6.93501 -2.41412
HEad  -109.247 -34.6357 44.4486
LeftShoulder1  -1.94126e-019 -3.10601e-018 -2.51263e-017
LeftArm  -38.3865 18.9417 -76.1715
LeftForeArm  24.0919 -14.5226 -2.60039
LeftHand  -0.398703 -0.342221 8.16699
RightShoulder  -4.96962e-017 0 -2.36833e-017
RightArm  -23.3788 37.3367 44.3962
RightForeArm  63.1192 20.1511 3.66692
RightHand  -0.274244 -1.18583 -7.47368
LeftUpLeg  -3.40623 -5.85311 4.99005
LeftLeg  15.3399 8.65346 1.77591
LeftFoot  -5.0418 -0.0342713 -0.616884
LeftToes  -37.9988 1.70063e-006 7.6642e-008
502
root  -39.0831 33.5829 5.76858 -158.861 -81.3406 168.495
RightUpLeg  -30.9726 -32.8474 -8.70036
RightLeg  45.5618 -0.963998 -0.900319
RightFoot  6.78338 0.0359431 -0.0648917
RightToes  -38.2725 -0.204833 -0.305157
Spine  -3.65995 3.72286 -1.6627
Spine1  -7.26765 7.24333 -2.67579
HEad  -113.216 -38.1943 48.5547
LeftShoulder1  -1.94126e-019 -3.10601e-018 -2.51263e-017
LeftArm  -29.441 16.292 -80.1273
LeftForeArm  24.1431 -20.3746 -3.71602
LeftHand  -0.482056 -0.117368 10.2423
RightShoulder  -4.96962e-017 0 -2.36833e-017
RightArm  -10.1709 31.1621 52.1483
RightForeArm  71.8376 14.0651 2.46419
RightHand  -0.0541624 -4.71422 -5.71417
LeftUpLeg  -1.81247 -3.37124 4.54312
LeftLeg  12.5982 9.11743 1.42233
LeftFoot  -4.12665 -0.0239087 -0.502089
LeftToes  -37.6251 1.70063e-006 7.6642e-008
503
root  -39.191 33.6034 5.5356 -163.489 -78.2869 174.096
RightUpLeg  -35.7295 -35.9874 -3.05935
RightLeg  44.8897 -1.44055 -1.29545
RightFoot  3.82715 0.0178575 0.0036921
RightToes  -36.701 -0.19268 -0.295738
Spine  -3.4058 3.66263 -1.25125
Spine1  -6.74693 7.25256 -1.86857
HEad  -114.853 -41.1416 49.3722
LeftShoulder1  -1.94126e-019 -3.10601e-018 -2.51263e-017
LeftArm  -23.5775 14.4779 -82.9703
LeftForeArm  23.6883 -27.2284 -4.96539
LeftHand  -0.527351 -0.725001 10.1341
RightShoulder  -4.96962e-017 0 -2.36833e-017
RightArm  -1.52603 23.2979 59.383
RightForeArm  80.721 11.7845 2.01346
RightHand  -0.0410593 -3.72515 -1.52114
LeftUpLeg  -0.951857 -1.64291 4.8005
LeftLeg  10.8938 10.6904 1.34317
LeftFoot  -3.53321 -0.0205159 -0.503634
LeftToes  -36.666 1.70063e-006 7.6642e-008
504
root  -39.3774 33.5849 5.18299 -168.056 -75.3648 179.587
RightUpLeg  -39.3177 -38.8179 4.11421
RightLeg  41.4662 -2.85159 -2.23507
RightFoot  4.78733 0.028351 -0.130984
RightToes  -34.6443 -0.177175 -0.282914
Spine  -3.28604 3.22105 -0.233692
Spine1  -6.46485 6.53989 0.146071
HEad  -113.563 -42.9659 46.9106
LeftShoulder1  -1.94126e-019 -3.10601e-018 -2.51263e-017
LeftArm  -18.7553 14.0617 -84.4097
LeftForeArm  24.8403 -34.1767 -6.18969
LeftHand  -0.547189 -1.53222 9.34516
RightShoulder  -4.96962e-017 0 -2.36833e-017
RightArm  -17.7152 14.3575 65.1377
RightForeArm  100.105 7.56925 1.18659
RightHand  -0.19269 0.905358 -3.65872
LeftUpLeg  -0.759795 -0.737285 5.63022
LeftLeg  11.1801 13.0095 1.69561
LeftFoot  -3.68457 -0.0274628 -0.69225
LeftToes  -36.1219 1.70063e-006 7.6642e-008
505
root  -39.6333 33.486 4.7437 -170.595 -72.3799 -177.431
RightUpLeg  -42.079 -41.9936 11.338
RightLeg  38.9882 -8.62448 -6.08039
RightFoot  -0.363658 -0.00158335 0.321922
RightToes  -12.4239 -0.0433696 -0.113297
Spine  -2.90077 2.61069 0.834315
Spine1  -5.65121 5.48704 2.22973
HEad  -110.663 -42.939 43.0112
LeftShoulder1  -1.94126e-019 -3.10601e-018 -2.51263e-017
LeftArm  -15.6125 14.1793 -83.9722
LeftForeArm  30.1935 -41.5836 -7.97716
LeftHand  -0.61646 -2.66541 9.10315
RightShoulder  -4.96962e-017 0 -2.36833e-017
RightArm  -12.3217 2.87057 66.234
RightForeArm  79.1703 10.4869 1.65398
RightHand  -0.235248 6.86183 -2.57661
LeftUpLeg  -0.821691 0.670057 6.46401
LeftLeg  13.3731 14.4321 2.43538
LeftFoot  -4.19307 -0.0401686 -0.935688
LeftToes  -37.1751 1.70063e-006 7.6642e-008
